<svg width="19" height="24" viewBox="0 0 19 24" fill="none" xmlns="http://www.w3.org/2000/svg">
<path d="M13.7422 17.4528C15.7488 17.5408 17.3867 19.1719 17.3867 21.1705V22.4996H1.5V21.1705L1.50488 20.9762C1.59655 19.0432 3.04964 17.5384 4.95605 17.4528C6.37957 18.5993 7.84597 19.2076 9.34961 19.2076C10.853 19.2076 12.3189 18.599 13.7422 17.4528Z" fill="#92D3F5" stroke="black"/>
<mask id="path-2-inside-1_198_205" fill="white">
<path d="M3.81449 11.3198C2.87632 11.3198 2.40724 5.69083 3.81449 3.8145C6.62899 0.0618336 12.258 0.0618336 15.0725 3.8145C16.4797 5.69083 16.0107 11.3198 15.0725 11.3198"/>
</mask>
<path d="M3.81449 11.3198C2.87632 11.3198 2.40724 5.69083 3.81449 3.8145C6.62899 0.0618336 12.258 0.0618336 15.0725 3.8145C16.4797 5.69083 16.0107 11.3198 15.0725 11.3198" fill="#F1B31C"/>
<path d="M3.81449 11.3198V10.3198C4.2349 10.3198 4.38576 10.6237 4.33208 10.539C4.30812 10.5012 4.25011 10.3814 4.18469 10.1446C4.05798 9.68608 3.96187 9.00647 3.93432 8.2351C3.90697 7.46926 3.94896 6.66139 4.07375 5.95205C4.20281 5.21844 4.40216 4.6976 4.61449 4.4145L3.81449 3.8145L3.01449 3.2145C2.52319 3.86956 2.25346 4.75597 2.104 5.60552C1.95027 6.47934 1.90431 7.43053 1.93559 8.30648C1.96668 9.1769 2.0758 10.0218 2.25692 10.6773C2.34542 10.9976 2.46698 11.3322 2.64274 11.6096C2.78879 11.84 3.15954 12.3198 3.81449 12.3198V11.3198ZM3.81449 3.8145L4.61449 4.4145C7.02899 1.19517 11.858 1.19517 14.2725 4.4145L15.0725 3.8145L15.8725 3.2145C12.658 -1.0715 6.22899 -1.0715 3.01449 3.2145L3.81449 3.8145ZM15.0725 3.8145L14.2725 4.4145C14.4848 4.6976 14.6842 5.21844 14.8132 5.95205C14.938 6.66139 14.98 7.46926 14.9527 8.2351C14.9251 9.00647 14.829 9.68608 14.7023 10.1446C14.6369 10.3814 14.5789 10.5012 14.5549 10.539C14.5012 10.6237 14.6521 10.3198 15.0725 10.3198V11.3198V12.3198C15.7274 12.3198 16.0982 11.84 16.2442 11.6096C16.42 11.3322 16.5416 10.9976 16.63 10.6773C16.8112 10.0218 16.9203 9.1769 16.9514 8.30648C16.9827 7.43053 16.9367 6.47934 16.783 5.60552C16.6335 4.75597 16.3638 3.86956 15.8725 3.2145L15.0725 3.8145Z" fill="black" mask="url(#path-2-inside-1_198_205)"/>
<path d="M13.0961 6.29242C13.1938 6.41081 13.3217 6.5914 13.4525 6.85297C13.7635 7.47502 14.1038 8.56824 14.1039 10.3813C14.1039 12.1444 13.5335 13.4026 12.6849 14.2202C11.8317 15.0421 10.6502 15.4633 9.34998 15.4633C8.05134 15.4633 6.92106 15.0437 6.11658 14.2289C5.31344 13.4155 4.78357 12.1561 4.78357 10.3813C4.78362 8.56843 5.12302 7.47505 5.43396 6.85297C5.53867 6.64354 5.64208 6.4859 5.72888 6.37054C7.03965 7.29593 9.73974 7.85408 13.0961 6.29242Z" fill="#FCEA2B" stroke="black"/>
<path d="M3.81449 11.3198C2.87632 11.3198 2.40724 5.69083 3.81449 3.8145C6.62899 0.0618336 12.258 0.0618336 15.0725 3.8145C16.4797 5.69083 16.0107 11.3198 15.0725 11.3198" stroke="black" stroke-linecap="round" stroke-linejoin="round"/>
<path d="M17.887 22.5778V21.1237C17.887 18.7782 15.9168 16.9019 13.5714 16.9019C10.7569 19.2473 7.94243 19.2473 5.12793 16.9019C2.78252 16.9019 1 18.7782 1 21.1237V22.5778" stroke="black" stroke-linecap="round" stroke-linejoin="round"/>
<path d="M11.3201 9.47443C11.5598 9.4746 11.7576 9.67316 11.7576 9.9129C11.7575 10.1525 11.5597 10.3502 11.3201 10.3504C11.0804 10.3504 10.8818 10.1526 10.8817 9.9129C10.8817 9.67305 11.0803 9.47443 11.3201 9.47443Z" fill="black" stroke="black"/>
<path d="M7.5675 9.47443C7.80721 9.4746 8.005 9.67316 8.005 9.9129C8.00483 10.1525 7.80711 10.3502 7.5675 10.3504C7.32776 10.3504 7.1292 10.1526 7.12903 9.9129C7.12903 9.67305 7.32766 9.47443 7.5675 9.47443Z" fill="black" stroke="black"/>
<path d="M4.28357 10.3817C4.28357 14.1344 6.53517 15.9638 9.34967 15.9638C12.1642 15.9638 14.6034 14.1344 14.6034 10.3817C14.6034 6.62902 13.1961 5.69086 13.1961 5.69086C9.44348 7.56719 6.62898 6.62902 5.69082 5.69086C5.69082 5.69086 4.28357 6.62902 4.28357 10.3817Z" stroke="black" stroke-linejoin="round"/>
<path d="M7.94232 12.8209C8.83358 13.29 9.86556 13.29 10.7568 12.8209" stroke="black" stroke-linecap="round" stroke-linejoin="round"/>
</svg>
