<svg width="50" height="51" viewBox="0 0 50 51" fill="none" xmlns="http://www.w3.org/2000/svg">
<path d="M20 23C20 21.6739 20.5268 20.4021 21.4645 19.4645C22.4021 18.5268 23.6739 18 25 18C26.3261 18 27.5979 18.5268 28.5355 19.4645C29.4732 20.4021 30 21.6739 30 23C30 24.3261 29.4732 25.5979 28.5355 26.5355C27.5979 27.4732 26.3261 28 25 28C23.6739 28 22.4021 27.4732 21.4645 26.5355C20.5268 25.5979 20 24.3261 20 23ZM25 20.5C24.337 20.5 23.7011 20.7634 23.2322 21.2322C22.7634 21.7011 22.5 22.337 22.5 23C22.5 23.663 22.7634 24.2989 23.2322 24.7678C23.7011 25.2366 24.337 25.5 25 25.5C25.663 25.5 26.2989 25.2366 26.7678 24.7678C27.2366 24.2989 27.5 23.663 27.5 23C27.5 22.337 27.2366 21.7011 26.7678 21.2322C26.2989 20.7634 25.663 20.5 25 20.5ZM16.33 33.755C16.13 31.875 17.715 30.5 19.375 30.5H30.625C32.2875 30.5 33.87 31.875 33.67 33.755C33.52 35.155 33.0825 36.89 31.71 38.27C30.3175 39.665 28.165 40.5 25 40.5C21.835 40.5 19.6825 39.665 18.29 38.27C16.915 36.89 16.48 35.1525 16.33 33.755ZM18.935 33.18C18.8925 33.219 18.8596 33.2672 18.8388 33.321C18.818 33.3747 18.8098 33.4326 18.815 33.49C18.9375 34.6275 19.265 35.705 20.0625 36.505C20.8425 37.2875 22.2675 38 25 38C27.7325 38 29.1575 37.2875 29.9375 36.505C30.7375 35.705 31.0625 34.6275 31.1825 33.49C31.1884 33.4324 31.1808 33.3742 31.1604 33.32C31.1401 33.2657 31.1074 33.217 31.065 33.1775C30.9474 33.0628 30.7893 32.999 30.625 33H19.375C19.2107 32.999 19.0526 33.0653 18.935 33.18ZM21.25 10.5C20.9185 10.5 20.6005 10.6317 20.3661 10.8661C20.1317 11.1005 20 11.4185 20 11.75C20 12.0815 20.1317 12.3995 20.3661 12.6339C20.6005 12.8683 20.9185 13 21.25 13H28.75C29.0815 13 29.3995 12.8683 29.6339 12.6339C29.8683 12.3995 30 12.0815 30 11.75C30 11.4185 29.8683 11.1005 29.6339 10.8661C29.3995 10.6317 29.0815 10.5 28.75 10.5H21.25ZM40 9.25C40 8.25544 39.6049 7.30161 38.9017 6.59835C38.1984 5.89509 37.2446 5.5 36.25 5.5H13.75C12.7554 5.5 11.8016 5.89509 11.0983 6.59835C10.3951 7.30161 10 8.25544 10 9.25V41.75C10 42.7446 10.3951 43.6984 11.0983 44.4016C11.8016 45.1049 12.7554 45.5 13.75 45.5H36.25C37.2446 45.5 38.1984 45.1049 38.9017 44.4016C39.6049 43.6984 40 42.7446 40 41.75V9.25ZM13.75 8H36.25C36.5815 8 36.8995 8.1317 37.1339 8.36612C37.3683 8.60054 37.5 8.91848 37.5 9.25V41.75C37.5 42.0815 37.3683 42.3995 37.1339 42.6339C36.8995 42.8683 36.5815 43 36.25 43H13.75C13.4185 43 13.1005 42.8683 12.8661 42.6339C12.6317 42.3995 12.5 42.0815 12.5 41.75V9.25C12.5 8.91848 12.6317 8.60054 12.8661 8.36612C13.1005 8.1317 13.4185 8 13.75 8Z" fill="white"/>
</svg>
