<svg width="50" height="51" viewBox="0 0 50 51" fill="none" xmlns="http://www.w3.org/2000/svg">
<path d="M15.95 10.3675C13.675 11.815 12.5 13.66 12.5 15.5C12.5 17.34 13.675 19.185 15.95 20.6325C18.205 22.07 21.4025 23 25 23C28.5975 23 31.7925 22.07 34.05 20.6325C36.325 19.185 37.5 17.34 37.5 15.5C37.5 13.66 36.325 11.815 34.05 10.3675C31.795 8.93 28.5975 8 25 8C21.4025 8 18.2075 8.93 15.95 10.3675ZM14.605 8.2575C17.325 6.53 21.0025 5.5 25 5.5C28.9975 5.5 32.675 6.53 35.395 8.2575C38.095 9.9775 40 12.5075 40 15.5C40 18.4925 38.0975 21.0225 35.395 22.7425C32.675 24.47 28.9975 25.5 25 25.5C21.0025 25.5 17.325 24.47 14.605 22.7425C11.905 21.0225 10 18.4925 10 15.5C10 12.5075 11.9025 9.9775 14.605 8.2575ZM39.3825 22.6225C38.758 23.2602 38.0778 23.8408 37.35 24.3575C37.45 24.7358 37.5 25.1167 37.5 25.5C37.5 27.34 36.325 29.185 34.05 30.6325C31.7925 32.07 28.595 33 25 33C21.405 33 18.2075 32.07 15.95 30.6325C13.675 29.185 12.5 27.34 12.5 25.5C12.5 25.1167 12.55 24.7358 12.65 24.3575C11.9222 23.8408 11.242 23.2602 10.6175 22.6225C10.2101 23.5271 9.9996 24.5079 10 25.5C10 28.4925 11.9025 31.0225 14.605 32.7425C17.325 34.47 21.0025 35.5 25 35.5C28.9975 35.5 32.675 34.47 35.395 32.7425C38.095 31.0225 40 28.4925 40 25.5C40 24.4825 39.78 23.52 39.3825 22.6225ZM39.3825 32.6225C38.7758 33.2442 38.0983 33.8225 37.35 34.3575C37.45 34.7358 37.5 35.1167 37.5 35.5C37.5 37.34 36.325 39.185 34.05 40.6325C31.7925 42.07 28.595 43 25 43C21.405 43 18.2075 42.07 15.95 40.6325C13.675 39.185 12.5 37.34 12.5 35.5C12.5 35.1167 12.55 34.7358 12.65 34.3575C11.9222 33.8408 11.242 33.2602 10.6175 32.6225C10.2101 33.5271 9.9996 34.5079 10 35.5C10 38.4925 11.9025 41.0225 14.605 42.7425C17.325 44.4725 21.0025 45.5 25 45.5C28.9975 45.5 32.675 44.47 35.395 42.7425C38.095 41.0225 40 38.4925 40 35.5C40 34.4825 39.78 33.52 39.3825 32.6225Z" fill="white"/>
</svg>
