<svg width="17" height="20" viewBox="0 0 17 20" fill="none" xmlns="http://www.w3.org/2000/svg">
<path d="M3.33329 15.8333V8.33325C3.33329 7.00717 3.86008 5.7354 4.79776 4.79772C5.73544 3.86004 7.00721 3.33325 8.33329 3.33325C9.65937 3.33325 10.9311 3.86004 11.8688 4.79772C12.8065 5.7354 13.3333 7.00717 13.3333 8.33325V15.8333M3.33329 15.8333H13.3333M3.33329 15.8333H1.66663M13.3333 15.8333H15M7.49996 18.3333H9.16663" stroke="black" stroke-width="2.08333" stroke-linecap="round" stroke-linejoin="round"/>
<path d="M8.33327 3.33329C8.79351 3.33329 9.16661 2.9602 9.16661 2.49996C9.16661 2.03972 8.79351 1.66663 8.33327 1.66663C7.87303 1.66663 7.49994 2.03972 7.49994 2.49996C7.49994 2.9602 7.87303 3.33329 8.33327 3.33329Z" stroke="black" stroke-width="2.08333"/>
</svg>
