<svg width="15" height="18" viewBox="0 0 15 18" fill="none" xmlns="http://www.w3.org/2000/svg">
<path fill-rule="evenodd" clip-rule="evenodd" d="M7.5 7.33329C7.8283 7.33329 8.15339 7.26863 8.45671 7.14299C8.76002 7.01735 9.03562 6.83321 9.26777 6.60106C9.49991 6.36891 9.68406 6.09332 9.8097 5.79C9.93534 5.48669 10 5.1616 10 4.83329C10 4.50499 9.93534 4.1799 9.8097 3.87658C9.68406 3.57327 9.49991 3.29767 9.26777 3.06553C9.03562 2.83338 8.76002 2.64923 8.45671 2.52359C8.15339 2.39796 7.8283 2.33329 7.5 2.33329C6.83696 2.33329 6.20107 2.59668 5.73223 3.06553C5.26339 3.53437 5 4.17025 5 4.83329C5 5.49633 5.26339 6.13222 5.73223 6.60106C6.20107 7.0699 6.83696 7.33329 7.5 7.33329ZM7.5 8.99996C8.60507 8.99996 9.66488 8.56097 10.4463 7.77957C11.2277 6.99817 11.6667 5.93836 11.6667 4.83329C11.6667 3.72822 11.2277 2.66842 10.4463 1.88701C9.66488 1.10561 8.60507 0.666626 7.5 0.666626C6.39493 0.666626 5.33512 1.10561 4.55372 1.88701C3.77232 2.66842 3.33333 3.72822 3.33333 4.83329C3.33333 5.93836 3.77232 6.99817 4.55372 7.77957C5.33512 8.56097 6.39493 8.99996 7.5 8.99996ZM1.36583 11.8733C2.32 10.6083 3.7575 9.83329 5.595 9.83329H9.405C11.2425 9.83329 12.68 10.6083 13.6342 11.8733C14.5683 13.1125 15 14.7633 15 16.5C15 16.721 14.9122 16.9329 14.7559 17.0892C14.5996 17.2455 14.3877 17.3333 14.1667 17.3333C13.9457 17.3333 13.7337 17.2455 13.5774 17.0892C13.4211 16.9329 13.3333 16.721 13.3333 16.5C13.3333 15.015 12.9617 13.75 12.3042 12.8766C11.6667 12.0316 10.7225 11.5 9.40417 11.5H5.59583C4.2775 11.5 3.33333 12.0316 2.69583 12.8766C2.0375 13.75 1.66667 15.015 1.66667 16.5C1.66667 16.721 1.57887 16.9329 1.42259 17.0892C1.26631 17.2455 1.05435 17.3333 0.833333 17.3333C0.61232 17.3333 0.400358 17.2455 0.244078 17.0892C0.0877973 16.9329 0 16.721 0 16.5C0 14.7633 0.431667 13.1125 1.36583 11.8733Z" fill="black"/>
<path fill-rule="evenodd" clip-rule="evenodd" d="M0 16.5C0 16.2789 0.0877973 16.067 0.244078 15.9107C0.400358 15.7544 0.61232 15.6666 0.833333 15.6666H14.135C14.356 15.6666 14.568 15.7544 14.7243 15.9107C14.8805 16.067 14.9683 16.2789 14.9683 16.5C14.9683 16.721 14.8805 16.9329 14.7243 17.0892C14.568 17.2455 14.356 17.3333 14.135 17.3333H0.833333C0.61232 17.3333 0.400358 17.2455 0.244078 17.0892C0.0877973 16.9329 0 16.721 0 16.5Z" fill="black"/>
</svg>
