<svg width="50" height="51" viewBox="0 0 50 51" fill="none" xmlns="http://www.w3.org/2000/svg">
<path d="M23.4375 29.6666C23.0231 29.6666 22.6257 29.502 22.3326 29.209C22.0396 28.916 21.875 28.5185 21.875 28.1041C21.875 27.6897 22.0396 27.2923 22.3326 26.9993C22.6257 26.7062 23.0231 26.5416 23.4375 26.5416C23.8519 26.5416 24.2493 26.7062 24.5424 26.9993C24.8354 27.2923 25 27.6897 25 28.1041C25 28.5185 24.8354 28.916 24.5424 29.209C24.2493 29.502 23.8519 29.6666 23.4375 29.6666Z" fill="white"/>
<path fill-rule="evenodd" clip-rule="evenodd" d="M9.82188 21.3333C10.0247 21.3333 10.2229 21.3167 10.4167 21.2833V29.6667H7.8125C7.67437 29.6667 7.54189 29.7215 7.44422 29.8192C7.34654 29.9169 7.29167 30.0494 7.29167 30.1875V31.2292C7.29167 31.3673 7.34654 31.4998 7.44422 31.5975C7.54189 31.6951 7.67437 31.75 7.8125 31.75H42.1875C42.3256 31.75 42.4581 31.6951 42.5558 31.5975C42.6535 31.4998 42.7083 31.3673 42.7083 31.2292V30.1875C42.7083 30.0494 42.6535 29.9169 42.5558 29.8192C42.4581 29.7215 42.3256 29.6667 42.1875 29.6667H39.5833V21.2833C39.7778 21.3167 39.976 21.3333 40.1781 21.3333C42.1594 21.3333 43.75 19.7167 43.75 17.7406V15.251C43.7507 14.9207 43.6933 14.5927 43.5802 14.2823L41.3094 8.02188C41.1747 7.64926 40.9284 7.32723 40.604 7.09963C40.2797 6.87204 39.8931 6.74995 39.4969 6.75H10.5021C10.1061 6.75046 9.71986 6.8729 9.39593 7.10066C9.072 7.32842 8.82609 7.65044 8.69167 8.02292L6.42084 14.2823C6.30742 14.5927 6.24959 14.9206 6.25 15.251V17.7406C6.25 19.7167 7.84063 21.3333 9.82188 21.3333ZM8.37917 14.9927L10.6135 8.83333H39.3854L41.6198 14.9927C41.6504 15.076 41.6656 15.1622 41.6656 15.251V17.7406C41.6681 18.1381 41.5128 18.5203 41.2337 18.8033C40.9546 19.0863 40.5746 19.247 40.1771 19.25C39.3646 19.25 38.6896 18.5833 38.6896 17.7406C38.6896 17.4644 38.5798 17.1994 38.3845 17.0041C38.1891 16.8087 37.9242 16.699 37.6479 16.699C37.3716 16.699 37.1067 16.8087 36.9114 17.0041C36.716 17.1994 36.6062 17.4644 36.6062 17.7406C36.6087 18.1381 36.4534 18.5203 36.1743 18.8033C35.8952 19.0863 35.5152 19.247 35.1177 19.25C34.3052 19.25 33.6302 18.5833 33.6302 17.7417C33.6302 17.4654 33.5205 17.2004 33.3251 17.0051C33.1298 16.8097 32.8648 16.7 32.5885 16.7C32.3123 16.7 32.0473 16.8097 31.852 17.0051C31.6566 17.2004 31.5469 17.4654 31.5469 17.7417C31.5469 18.5833 30.8719 19.25 30.0583 19.25C29.2448 19.25 28.5708 18.5833 28.5708 17.7406C28.5708 17.4644 28.4611 17.1994 28.2657 17.0041C28.0704 16.8087 27.8054 16.699 27.5292 16.699C27.2529 16.699 26.9879 16.8087 26.7926 17.0041C26.5972 17.1994 26.4875 17.4644 26.4875 17.7406C26.49 18.1379 26.3348 18.52 26.0559 18.8029C25.777 19.0859 25.3973 19.2467 25 19.25C24.6027 19.247 24.2229 19.0865 23.9438 18.8037C23.6647 18.5209 23.5092 18.139 23.5115 17.7417C23.5115 17.4654 23.4017 17.2004 23.2064 17.0051C23.011 16.8097 22.7461 16.7 22.4698 16.7C22.1935 16.7 21.9286 16.8097 21.7332 17.0051C21.5379 17.2004 21.4281 17.4654 21.4281 17.7417C21.4281 18.5833 20.7542 19.25 19.9406 19.25C19.1271 19.25 18.4521 18.5833 18.4521 17.7406C18.4521 17.4644 18.3423 17.1994 18.147 17.0041C17.9516 16.8087 17.6867 16.699 17.4104 16.699C17.1342 16.699 16.8692 16.8087 16.6738 17.0041C16.4785 17.1994 16.3688 17.4644 16.3688 17.7406C16.3688 18.5823 15.6948 19.25 14.8813 19.25C14.0677 19.25 13.3927 18.5833 13.3927 17.7406C13.3927 17.4644 13.283 17.1994 13.0876 17.0041C12.8923 16.8087 12.6273 16.699 12.351 16.699C12.0748 16.699 11.8098 16.8087 11.6145 17.0041C11.4191 17.1994 11.3094 17.4644 11.3094 17.7406C11.3094 18.5823 10.6354 19.25 9.82188 19.25C9.00729 19.25 8.33334 18.5833 8.33334 17.7406V15.251C8.33334 15.1615 8.34861 15.0753 8.37917 14.9927ZM37.5 20.4187C36.8474 21.0088 35.9985 21.3348 35.1188 21.3333C34.6481 21.3341 34.1821 21.2411 33.7478 21.0598C33.3136 20.8784 32.9198 20.6123 32.5896 20.2771C32.2592 20.6125 31.8653 20.8786 31.4308 21.06C30.9964 21.2413 30.5302 21.3343 30.0594 21.3333C29.5888 21.3341 29.1227 21.2411 28.6885 21.0598C28.2542 20.8784 27.8605 20.6123 27.5302 20.2771C27.1998 20.6125 26.8059 20.8786 26.3715 21.06C25.937 21.2413 25.4708 21.3343 25 21.3333C24.5292 21.3343 24.063 21.2413 23.6285 21.06C23.1941 20.8786 22.8002 20.6125 22.4698 20.2771C22.1395 20.6123 21.7458 20.8784 21.3115 21.0598C20.8773 21.2411 20.4112 21.3341 19.9406 21.3333C18.95 21.3333 18.0552 20.9281 17.4104 20.2771C17.0802 20.6123 16.6864 20.8784 16.2522 21.0598C15.8179 21.2411 15.3519 21.3341 14.8813 21.3333C13.9646 21.3333 13.1313 20.9865 12.5 20.4187V29.6667H15.1042C14.966 29.6667 14.8336 29.6118 14.7359 29.5141C14.6382 29.4164 14.5833 29.284 14.5833 29.1458V27.0625C14.5833 26.9244 14.6382 26.7919 14.7359 26.6942C14.8336 26.5965 14.966 26.5417 15.1042 26.5417H18.2292C18.3673 26.5417 18.4998 26.5965 18.5975 26.6942C18.6951 26.7919 18.75 26.9244 18.75 27.0625V27.5833H20.3125C20.4506 27.5833 20.5831 27.6382 20.6808 27.7359C20.7785 27.8336 20.8333 27.966 20.8333 28.1042V29.1458C20.8333 29.284 20.7785 29.4164 20.6808 29.5141C20.5831 29.6118 20.4506 29.6667 20.3125 29.6667H37.5V20.4187ZM8.33334 34.875C8.33334 34.5987 8.44308 34.3338 8.63843 34.1384C8.83378 33.9431 9.09873 33.8333 9.375 33.8333H40.625C40.9013 33.8333 41.1662 33.9431 41.3616 34.1384C41.5569 34.3338 41.6667 34.5987 41.6667 34.875V43.2083C41.6667 43.4846 41.5569 43.7496 41.3616 43.9449C41.1662 44.1403 40.9013 44.25 40.625 44.25H9.375C9.09873 44.25 8.83378 44.1403 8.63843 43.9449C8.44308 43.7496 8.33334 43.4846 8.33334 43.2083V34.875ZM10.4167 42.1667V35.9167H39.5833V42.1667H10.4167Z" fill="white"/>
</svg>
