<svg width="50" height="50" viewBox="0 0 50 50" fill="none" xmlns="http://www.w3.org/2000/svg">
<path d="M13.5688 33.3334H21.9021M13.5688 22.9167H30.2355M20.8605 45.8334H22.9438M15.6459 45.8334C13.25 45.7813 11.6375 45.8334 9.5563 45.3646C7.3688 44.7917 6.01463 43.4375 5.54797 40.7292C5.07922 38.9584 5.22922 31.0917 5.23547 23.5938C5.23963 17.775 5.27713 12.4979 5.7563 11.4063C6.43338 9.06252 7.9938 7.39585 12.8355 7.34377M33.3938 7.34377C35.0605 7.50002 39.4146 7.34377 40.2646 12.1354C40.7271 14.7396 40.6292 18.4375 40.6292 22.8646M17.05 11.4584C19.2375 11.5104 26.2625 11.4584 28.6584 11.4584C31.0521 11.4584 32.3167 9.48752 32.3021 7.65627C32.2855 5.7896 30.6355 4.33335 29.0209 4.16669H17C15.073 4.27085 13.7709 5.83335 13.5625 7.39585C13.3542 9.53127 14.9167 11.3542 17.05 11.4584ZM38.0792 29.9479C35.2146 32.8646 29.698 38.0729 29.698 38.4375C29.2542 39.0563 28.8646 40.3125 28.6042 42.0834C28.2792 43.725 27.8875 45.1563 28.3459 45.5729C28.8042 45.9896 30.5271 45.6396 32.3521 45.2604C33.8105 45.1042 35.1646 44.5834 35.8396 44.0625C36.8292 43.1875 43.5438 36.4063 44.325 35.5209C44.8959 34.7396 44.95 33.2813 44.45 32.3959C44.1688 31.7709 42.398 30.1042 41.825 29.6354C41.249 29.2801 40.5742 29.1188 39.8997 29.175C39.2252 29.2313 38.5885 29.5021 38.0792 29.9479Z" stroke="white" stroke-width="1.5" stroke-linecap="round" stroke-linejoin="round"/>
</svg>
