<svg width="21" height="20" viewBox="0 0 21 20" fill="none" xmlns="http://www.w3.org/2000/svg">
<path d="M10.6667 17.5C8.75008 17.5 7.08008 16.8647 5.65675 15.5942C4.23341 14.3236 3.4173 12.7367 3.20841 10.8333H4.91675C5.11119 12.2778 5.75369 13.4722 6.84425 14.4167C7.9348 15.3611 9.20897 15.8333 10.6667 15.8333C12.2917 15.8333 13.6704 15.2675 14.8026 14.1358C15.9348 13.0042 16.5006 11.6256 16.5001 10C16.4995 8.37444 15.9337 6.99611 14.8026 5.865C13.6715 4.73389 12.2929 4.16778 10.6667 4.16667C9.70841 4.16667 8.81258 4.38889 7.97925 4.83333C7.14591 5.27778 6.44453 5.88889 5.87508 6.66667H8.16675V8.33333H3.16675V3.33333H4.83341V5.29167C5.54175 4.40278 6.40647 3.71528 7.42758 3.22917C8.44869 2.74306 9.52841 2.5 10.6667 2.5C11.7084 2.5 12.6842 2.69806 13.5942 3.09417C14.5042 3.49028 15.2959 4.02472 15.9692 4.6975C16.6426 5.37028 17.1773 6.16194 17.5734 7.0725C17.9695 7.98306 18.1673 8.95889 18.1667 10C18.1662 11.0411 17.9684 12.0169 17.5734 12.9275C17.1784 13.8381 16.6437 14.6297 15.9692 15.3025C15.2948 15.9753 14.5031 16.51 13.5942 16.9067C12.6854 17.3033 11.7095 17.5011 10.6667 17.5ZM13.0001 13.5L9.83341 10.3333V5.83333H11.5001V9.66667L14.1667 12.3333L13.0001 13.5Z" fill="black"/>
</svg>
